<svg width="15" height="14" viewBox="0 0 15 14" fill="none" xmlns="http://www.w3.org/2000/svg">
<path d="M11.3536 13.3536C11.1583 13.5488 10.8417 13.5488 10.6464 13.3536L7.46447 10.1716C7.2692 9.97631 7.2692 9.65973 7.46447 9.46447C7.65973 9.2692 7.97631 9.2692 8.17157 9.46447L11 12.2929L13.8284 9.46447C14.0237 9.2692 14.3403 9.2692 14.5355 9.46447C14.7308 9.65973 14.7308 9.97631 14.5355 10.1716L11.3536 13.3536ZM11.5 1V13H10.5V1H11.5Z" fill="#D1D1D1"/>
<path d="M3.64645 0.646447C3.84171 0.451184 4.15829 0.451184 4.35355 0.646447L7.53553 3.82843C7.7308 4.02369 7.7308 4.34027 7.53553 4.53553C7.34027 4.7308 7.02369 4.7308 6.82843 4.53553L4 1.70711L1.17157 4.53553C0.976311 4.7308 0.659729 4.7308 0.464467 4.53553C0.269205 4.34027 0.269205 4.02369 0.464467 3.82843L3.64645 0.646447ZM3.5 13L3.5 1L4.5 1L4.5 13L3.5 13Z" fill="#D1D1D1"/>
</svg>
