<svg width="15" height="14" viewBox="0 0 15 14" fill="none" xmlns="http://www.w3.org/2000/svg">
<path d="M3.64645 13.3536C3.84171 13.5488 4.15829 13.5488 4.35355 13.3536L7.53553 10.1716C7.7308 9.97631 7.7308 9.65973 7.53553 9.46447C7.34027 9.2692 7.02369 9.2692 6.82843 9.46447L4 12.2929L1.17157 9.46447C0.976311 9.2692 0.659728 9.2692 0.464466 9.46447C0.269204 9.65973 0.269204 9.97631 0.464466 10.1716L3.64645 13.3536ZM3.5 1V13H4.5V1H3.5Z" fill="#D1D1D1"/>
<path d="M11.3536 0.646447C11.1583 0.451184 10.8417 0.451184 10.6464 0.646447L7.46447 3.82843C7.2692 4.02369 7.2692 4.34027 7.46447 4.53553C7.65973 4.7308 7.97631 4.7308 8.17157 4.53553L11 1.70711L13.8284 4.53553C14.0237 4.7308 14.3403 4.7308 14.5355 4.53553C14.7308 4.34027 14.7308 4.02369 14.5355 3.82843L11.3536 0.646447ZM11.5 13L11.5 1L10.5 1L10.5 13L11.5 13Z" fill="#D1D1D1"/>
</svg>
