<svg width="22" height="22" viewBox="0 0 22 22" fill="none" xmlns="http://www.w3.org/2000/svg">
<path d="M6.41675 10.0833C6.41675 9.57706 6.82716 9.16667 7.33341 9.16667C7.83967 9.16667 8.25008 9.57706 8.25008 10.0833C8.25008 10.5896 7.83967 11 7.33341 11C6.82716 11 6.41675 10.5896 6.41675 10.0833Z" fill="#42A5F5"/>
<path d="M6.41675 14.6667C6.41675 14.1604 6.82716 13.75 7.33341 13.75C7.83967 13.75 8.25008 14.1604 8.25008 14.6667C8.25008 15.1729 7.83967 15.5833 7.33341 15.5833C6.82716 15.5833 6.41675 15.1729 6.41675 14.6667Z" fill="#42A5F5"/>
<path d="M10.0833 10.0833C10.0833 9.57706 10.4936 9.16667 10.9999 9.16667C11.5062 9.16667 11.9166 9.57706 11.9166 10.0833C11.9166 10.5896 11.5062 11 10.9999 11C10.4936 11 10.0833 10.5896 10.0833 10.0833Z" fill="#42A5F5"/>
<path d="M10.0833 14.6667C10.0833 14.1604 10.4936 13.75 10.9999 13.75C11.5062 13.75 11.9166 14.1604 11.9166 14.6667C11.9166 15.1729 11.5062 15.5833 10.9999 15.5833C10.4936 15.5833 10.0833 15.1729 10.0833 14.6667Z" fill="#42A5F5"/>
<path d="M13.75 10.0833C13.75 9.57706 14.1604 9.16667 14.6667 9.16667C15.1729 9.16667 15.5833 9.57706 15.5833 10.0833C15.5833 10.5896 15.1729 11 14.6667 11C14.1604 11 13.75 10.5896 13.75 10.0833Z" fill="#42A5F5"/>
<path d="M13.75 14.6667C13.75 14.1604 14.1604 13.75 14.6667 13.75C15.1729 13.75 15.5833 14.1604 15.5833 14.6667C15.5833 15.1729 15.1729 15.5833 14.6667 15.5833C14.1604 15.5833 13.75 15.1729 13.75 14.6667Z" fill="#42A5F5"/>
<path fill-rule="evenodd" clip-rule="evenodd" d="M7.33325 1.83333C7.83951 1.83333 8.24992 2.24374 8.24992 2.74999V3.66666H13.7499V2.74999C13.7499 2.24374 14.1603 1.83333 14.6666 1.83333C15.1729 1.83333 15.5833 2.24374 15.5833 2.74999V3.66666C18.1145 3.66666 20.1666 5.71869 20.1666 8.24999V15.5833C20.1666 18.1146 18.1145 20.1667 15.5833 20.1667H6.41658C3.88528 20.1667 1.83325 18.1146 1.83325 15.5833V8.24999C1.83325 5.71869 3.88528 3.66666 6.41658 3.66666V2.74999C6.41658 2.24374 6.82699 1.83333 7.33325 1.83333ZM6.41658 5.49999C4.89781 5.49999 3.66659 6.73122 3.66659 8.24999V15.5833C3.66659 17.1022 4.89781 18.3333 6.41658 18.3333H15.5833C17.1021 18.3333 18.3333 17.1022 18.3333 15.5833V8.24999C18.3333 6.73122 17.1021 5.49999 15.5833 5.49999C15.5833 6.00626 15.1729 6.41666 14.6666 6.41666C14.1603 6.41666 13.7499 6.00626 13.7499 5.49999H8.24992C8.24992 6.00626 7.83951 6.41666 7.33325 6.41666C6.82699 6.41666 6.41658 6.00626 6.41658 5.49999Z" fill="#42A5F5"/>
</svg>
