<svg width="22" height="22" viewBox="0 0 22 22" fill="none" xmlns="http://www.w3.org/2000/svg">
<path d="M19.1898 2.04531H2.81445C1.52109 2.04531 0.472656 3.09375 0.472656 4.38281V17.6172C0.472656 18.9062 1.52109 19.9547 2.81445 19.9547H19.1898C20.4789 19.9547 21.5273 18.9062 21.5273 17.6172V4.38281C21.5273 3.09375 20.4789 2.04531 19.1898 2.04531ZM2.81445 3.79844H19.1898C19.5121 3.79844 19.7742 4.06055 19.7742 4.38281V7.0082H2.22578V4.38281C2.22578 4.06055 2.48789 3.79844 2.81445 3.79844ZM19.1898 18.2016H2.81445C2.49219 18.2016 2.23008 17.9395 2.23008 17.6172V8.76562H19.7742V17.6172C19.7742 17.9395 19.5121 18.2016 19.1898 18.2016Z" fill="#42A5F5"/>
<path d="M10.5532 15.4043H10.0118C9.52627 15.4043 9.13525 15.7953 9.13525 16.2809C9.13525 16.7664 9.52627 17.1574 10.0118 17.1574H10.5532C11.0388 17.1574 11.4298 16.7664 11.4298 16.2809C11.4298 15.7953 11.0388 15.4043 10.5532 15.4043Z" fill="#42A5F5"/>
<path d="M14.1367 15.4043H13.5953C13.1098 15.4043 12.7188 15.7953 12.7188 16.2809C12.7188 16.7664 13.1098 17.1574 13.5953 17.1574H14.1367C14.6223 17.1574 15.0133 16.7664 15.0133 16.2809C15.0133 15.7953 14.618 15.4043 14.1367 15.4043Z" fill="#42A5F5"/>
<path d="M17.7161 15.4043H17.1747C16.6891 15.4043 16.2981 15.7953 16.2981 16.2809C16.2981 16.7664 16.6891 17.1574 17.1747 17.1574H17.7161C18.2016 17.1574 18.5926 16.7664 18.5926 16.2809C18.5926 15.7953 18.2016 15.4043 17.7161 15.4043Z" fill="#42A5F5"/>
<path d="M7.07271 11.0687H4.47739C3.99185 11.0687 3.60083 11.4598 3.60083 11.9453C3.60083 12.4309 3.99185 12.8219 4.47739 12.8219H7.07271C7.55825 12.8219 7.94927 12.4309 7.94927 11.9453C7.94927 11.4598 7.55396 11.0687 7.07271 11.0687Z" fill="#42A5F5"/>
</svg>
