<svg width="174" height="174" viewBox="0 0 174 174" fill="none" xmlns="http://www.w3.org/2000/svg">
<path d="M160.355 133.777C150.341 149.481 135.551 161.557 118.161 168.228C100.772 174.899 81.7001 175.813 63.7521 170.836L70.9188 144.992C83.3339 148.435 96.5262 147.802 108.555 143.188C120.584 138.573 130.814 130.22 137.742 119.357L160.355 133.777Z" fill="#FFA51E"/>
<path d="M61.4455 170.162C47.0561 165.741 34.0602 157.661 23.7282 146.713C13.3961 135.766 6.0815 122.324 2.49926 107.703C-1.08297 93.0823 -0.810215 77.782 3.29087 63.2981C7.39196 48.8141 15.181 35.642 25.8967 25.0695L43.3888 42.7984C35.7407 50.3443 30.1814 59.7456 27.2543 70.0832C24.3272 80.4209 24.1326 91.3411 26.6893 101.777C29.2461 112.212 34.4667 121.805 41.841 129.619C49.2153 137.433 58.4909 143.2 68.761 146.355L61.4455 170.162Z" fill="#811EFF"/>
<path d="M28.0661 23.0016C42.5241 9.68771 61.0643 1.66166 80.6665 0.230842C100.269 -1.19997 119.778 4.04877 136.016 15.1221L122.203 35.3778C110.541 27.4251 96.5295 23.6555 82.4513 24.6831C68.3732 25.7107 55.0578 31.4749 44.6741 41.0369L28.0661 23.0016Z" fill="#F44336"/>
<path d="M170.427 62.3226C173.84 73.8625 174.822 85.9851 173.311 97.924C171.8 109.863 167.829 121.359 161.648 131.684L138.684 117.938C142.964 110.789 145.713 102.83 146.76 94.5635C147.806 86.2973 147.126 77.904 144.762 69.9141L170.427 62.3226Z" fill="#42A5F5"/>
</svg>
