<svg aria-hidden="true" style="position: absolute; width: 0; height: 0; overflow: hidden;" version="1.1" xmlns="http://www.w3.org/2000/svg" xmlns:xlink="http://www.w3.org/1999/xlink">
<defs>
<symbol id="icon-add" viewBox="0 0 32 32">
<path fill="#42a5f5" style="fill: var(--color1, #42a5f5)" d="M29.943 11.869v7.131h-28.352v-7.131h28.352zM19.659 0.648v30.114h-7.756v-30.114h7.756z"></path>
</symbol>
<symbol id="icon-calendar" viewBox="0 0 32 32">
<path fill="#42a5f5" style="fill: var(--color1, #42a5f5)" d="M9.333 14.667c0-0.736 0.597-1.333 1.333-1.333s1.333 0.597 1.333 1.333c0 0.736-0.597 1.333-1.333 1.333s-1.333-0.597-1.333-1.333z"></path>
<path fill="#42a5f5" style="fill: var(--color1, #42a5f5)" d="M9.333 21.333c0-0.736 0.597-1.333 1.333-1.333s1.333 0.597 1.333 1.333c0 0.736-0.597 1.333-1.333 1.333s-1.333-0.597-1.333-1.333z"></path>
<path fill="#42a5f5" style="fill: var(--color1, #42a5f5)" d="M14.667 14.667c0-0.736 0.597-1.333 1.333-1.333s1.333 0.597 1.333 1.333c0 0.736-0.597 1.333-1.333 1.333s-1.333-0.597-1.333-1.333z"></path>
<path fill="#42a5f5" style="fill: var(--color1, #42a5f5)" d="M14.667 21.333c0-0.736 0.597-1.333 1.333-1.333s1.333 0.597 1.333 1.333c0 0.736-0.597 1.333-1.333 1.333s-1.333-0.597-1.333-1.333z"></path>
<path fill="#42a5f5" style="fill: var(--color1, #42a5f5)" d="M20 14.667c0-0.736 0.597-1.333 1.333-1.333s1.333 0.597 1.333 1.333c0 0.736-0.597 1.333-1.333 1.333s-1.333-0.597-1.333-1.333z"></path>
<path fill="#42a5f5" style="fill: var(--color1, #42a5f5)" d="M20 21.333c0-0.736 0.597-1.333 1.333-1.333s1.333 0.597 1.333 1.333c0 0.736-0.597 1.333-1.333 1.333s-1.333-0.597-1.333-1.333z"></path>
<path fill="#42a5f5" style="fill: var(--color1, #42a5f5)" d="M10.667 2.667c0.736 0 1.333 0.597 1.333 1.333v1.333h8v-1.333c0-0.736 0.597-1.333 1.333-1.333s1.333 0.597 1.333 1.333v1.333c3.682 0 6.667 2.985 6.667 6.667v10.667c0 3.682-2.985 6.667-6.667 6.667h-13.333c-3.682 0-6.667-2.985-6.667-6.667v-10.667c0-3.682 2.985-6.667 6.667-6.667v-1.333c0-0.736 0.597-1.333 1.333-1.333zM9.333 8c-2.209 0-4 1.791-4 4v10.667c0 2.209 1.791 4 4 4h13.333c2.209 0 4-1.791 4-4v-10.667c0-2.209-1.791-4-4-4 0 0.736-0.597 1.333-1.333 1.333s-1.333-0.597-1.333-1.333h-8c0 0.736-0.597 1.333-1.333 1.333s-1.333-0.597-1.333-1.333z"></path>
</symbol>
<symbol id="icon-card" viewBox="0 0 32 32">
<path fill="#42a5f5" style="fill: var(--color1, #42a5f5)" d="M27.912 2.975h-23.819c-1.881 0-3.406 1.525-3.406 3.4v19.25c0 1.875 1.525 3.4 3.406 3.4h23.819c1.875 0 3.4-1.525 3.4-3.4v-19.25c0-1.875-1.525-3.4-3.4-3.4zM4.094 5.525h23.819c0.469 0 0.85 0.381 0.85 0.85v3.819h-25.525v-3.819c0-0.469 0.381-0.85 0.856-0.85zM27.912 26.475h-23.819c-0.469 0-0.85-0.381-0.85-0.85v-12.875h25.519v12.875c0 0.469-0.381 0.85-0.85 0.85z"></path>
<path fill="#42a5f5" style="fill: var(--color1, #42a5f5)" d="M15.35 22.406h-0.787c-0.706 0-1.275 0.569-1.275 1.275s0.569 1.275 1.275 1.275h0.787c0.706 0 1.275-0.569 1.275-1.275s-0.569-1.275-1.275-1.275z"></path>
<path fill="#42a5f5" style="fill: var(--color1, #42a5f5)" d="M20.562 22.406h-0.788c-0.706 0-1.275 0.569-1.275 1.275s0.569 1.275 1.275 1.275h0.788c0.706 0 1.275-0.569 1.275-1.275s-0.575-1.275-1.275-1.275z"></path>
<path fill="#42a5f5" style="fill: var(--color1, #42a5f5)" d="M25.769 22.406h-0.788c-0.706 0-1.275 0.569-1.275 1.275s0.569 1.275 1.275 1.275h0.788c0.706 0 1.275-0.569 1.275-1.275s-0.569-1.275-1.275-1.275z"></path>
<path fill="#42a5f5" style="fill: var(--color1, #42a5f5)" d="M10.288 16.1h-3.775c-0.706 0-1.275 0.569-1.275 1.275s0.569 1.275 1.275 1.275h3.775c0.706 0 1.275-0.569 1.275-1.275s-0.575-1.275-1.275-1.275z"></path>
</symbol>
<symbol id="icon-feedback" viewBox="0 0 32 32">
<path fill="#ffa51e" style="fill: var(--color2, #ffa51e)" d="M29.491 24.603c-1.842 2.888-4.562 5.109-7.76 6.336s-6.705 1.395-10.006 0.48l1.318-4.753c2.283 0.633 4.709 0.517 6.922-0.332s4.094-2.385 5.368-4.383l4.159 2.652z"></path>
<path fill="#811eff" style="fill: var(--color3, #811eff)" d="M11.3 31.294c-2.646-0.813-5.036-2.299-6.936-4.312s-3.245-4.485-3.904-7.174c-0.659-2.689-0.609-5.503 0.146-8.166s2.187-5.086 4.157-7.031l3.217 3.261c-1.407 1.388-2.429 3.117-2.967 5.018s-0.574 3.91-0.104 5.829c0.47 1.919 1.43 3.683 2.787 5.12s3.062 2.498 4.951 3.078l-1.345 4.378z"></path>
<path fill="#f44336" style="fill: var(--color4, #f44336)" d="M5.162 4.23c2.659-2.449 6.069-3.925 9.674-4.188s7.193 0.702 10.179 2.739l-2.54 3.725c-2.145-1.463-4.722-2.156-7.311-1.967s-5.038 1.249-6.948 3.008l-3.054-3.317z"></path>
<path fill="#42a5f5" style="fill: var(--color1, #42a5f5)" d="M31.343 11.462c0.628 2.122 0.808 4.352 0.53 6.547s-1.008 4.31-2.145 6.209l-4.223-2.528c0.787-1.315 1.293-2.778 1.485-4.299s0.067-3.064-0.367-4.533l4.72-1.396z"></path>
</symbol>
<symbol id="icon-filter" viewBox="0 0 15 11"  xmlns="http://www.w3.org/2000/svg">
<path d="M2 1.73273H13.659"   stroke-width="2" stroke-linecap="round" stroke-linejoin="round"/>
<path d="M4.02759 5.78802H11.6313"  stroke-width="2" stroke-linecap="round" stroke-linejoin="round"/>
<path d="M7.06909 9.3364H8.58983"   stroke-width="2" stroke-linecap="round" stroke-linejoin="round"/>
</symbol>
<symbol id="icon-search" viewBox="0 0 22 22" fill="none" xmlns="http://www.w3.org/2000/svg">
<path d="M16.4166 16.4167L20.75 20.75" stroke="#CDCDCD" stroke-width="2" stroke-linecap="round" stroke-linejoin="round"/>
<path d="M18.5833 9.91667C18.5833 14.7032 14.7032 18.5833 9.91667 18.5833C5.1302 18.5833 1.25 14.7032 1.25 9.91667C1.25 5.1302 5.1302 1.25 9.91667 1.25C14.7032 1.25 18.5833 5.1302 18.5833 9.91667Z" stroke="#CDCDCD" stroke-width="2"/>
</symbol>

</defs>
</svg>
